<?xml version="1.0" encoding="UTF-8" standalone="no"?>
<svg
   xmlns:dc="http://purl.org/dc/elements/1.1/"
   xmlns:cc="http://creativecommons.org/ns#"
   xmlns:rdf="http://www.w3.org/1999/02/22-rdf-syntax-ns#"
   xmlns:svg="http://www.w3.org/2000/svg"
   xmlns="http://www.w3.org/2000/svg"
   viewBox="0 0 1215.272 320.93866"
   height="320.93866"
   width="1215.272"
   xml:space="preserve"
   id="svg2"
   version="1.1"><metadata
     id="metadata8"><rdf:RDF><cc:Work
         rdf:about=""><dc:format>image/svg+xml</dc:format><dc:type
           rdf:resource="http://purl.org/dc/dcmitype/StillImage" /></cc:Work></rdf:RDF></metadata><defs
     id="defs6"><linearGradient
       id="linearGradient34"
       spreadMethod="pad"
       gradientTransform="matrix(146.83662,0,0,-146.83662,106.22336,102.85558)"
       gradientUnits="userSpaceOnUse"
       y2="0"
       x2="1"
       y1="0"
       x1="0"><stop
         id="stop24"
         offset="0"
         style="stop-opacity:1;stop-color:#18213b" /><stop
         id="stop26"
         offset="0.183953"
         style="stop-opacity:1;stop-color:#18213b" /><stop
         id="stop28"
         offset="0.34238922"
         style="stop-opacity:1;stop-color:#05a2a3" /><stop
         id="stop30"
         offset="0.891057"
         style="stop-opacity:1;stop-color:#05a2a3" /><stop
         id="stop32"
         offset="1"
         style="stop-opacity:1;stop-color:#05a2a3" /></linearGradient><clipPath
       id="clipPath44"
       clipPathUnits="userSpaceOnUse"><path
         id="path42"
         d="M 0,240.704 H 911.454 V 0 H 0 Z" /></clipPath></defs><g
     transform="matrix(1.3333333,0,0,-1.3333333,0,320.93867)"
     id="g10"><g
       id="g12"><g
         id="g14"><g
           id="g20"><g
             id="g22"><path
               id="path36"
               style="fill:url(#linearGradient34);stroke:none"
               d="m 141.332,166.476 14.991,-25.739 c -10.091,-7.205 -15.886,-15.213 -19.414,-25.243 v 0 l -18.162,29.398 C 91.783,103.458 110.475,49.697 154.589,33.05 v 0 c 37.708,-14.23 80.676,7.026 94.07,45.04 v 0 c 11.545,32.768 -0.158,68.222 -28.841,86.921 v 0 c -12.403,8.086 -26.421,12.095 -40.407,12.095 v 0 c -13.183,0 -26.338,-3.563 -38.079,-10.63 m 80.577,-50.512 c 5.577,-18.627 -1.275,-37.807 -15.422,-48.441 v 0 C 191.299,56.105 172.005,55.59 156.197,65.512 v 0 c -16.059,10.079 -24.404,29.058 -18.818,48.153 v 0 l 19.964,-34.453 34.464,-0.176 -35.027,61.671 c 25.121,15.026 57.031,2.304 65.129,-24.743" /></g></g></g></g><g
       id="g38"><g
         clip-path="url(#clipPath44)"
         id="g40"><g
           transform="translate(61.9319,77.669)"
           id="g46"><path
             id="path48"
             style="fill:#18213b;fill-opacity:1;fill-rule:nonzero;stroke:none"
             d="M 0,0 38.608,-0.258 C 39.489,-17.897 25.114,-30.064 7.415,-29.946 L -52.54,-29.547 46.252,145.568 79.4,88.806 C 70.635,82.568 63.2,75.66 56.815,67.223 L 46.794,83.822 Z" /></g><g
           transform="translate(136.9085,115.494)"
           id="g50"><path
             id="path52"
             style="fill:#18213b;fill-opacity:1;fill-rule:nonzero;stroke:none"
             d="m 0,0 c 1.648,4.602 4.793,11.422 10.88,17.935 2.941,3.146 5.92,5.527 8.534,7.308 l 0.457,-0.031 35.027,-61.67 -34.463,0.176 L 0.47,-1.829 Z" /></g><g
           transform="translate(889.2505,71.3494)"
           id="g54"><path
             id="path56"
             style="fill:#1d2645;fill-opacity:1;fill-rule:nonzero;stroke:none"
             d="m 0,0 -0.17,64.051 -32.346,-42.396 -32.259,42.341 -0.289,-64.066 -13.024,-0.003 0.135,88.086 c 3.982,0.583 7.678,0.526 12.006,0.017 L -32.701,42.222 1.248,87.929 c 3.887,0.629 7.226,0.765 11.563,0.03 L 12.795,0.047 Z" /></g><g
           transform="translate(344.4115,132.8465)"
           id="g58"><path
             id="path60"
             style="fill:#1e2645;fill-opacity:1;fill-rule:nonzero;stroke:none"
             d="m 0,0 -32.749,-61.523 -14.846,0.112 47.644,88.791 47.65,-88.875 -14.695,-0.014 z" /></g><g
           transform="translate(577.9671,132.7265)"
           id="g62"><path
             id="path64"
             style="fill:#1d2645;fill-opacity:1;fill-rule:nonzero;stroke:none"
             d="M 0,0 -32.687,-61.455 -47.301,-61.356 0.032,27.449 47.32,-61.148 32.871,-61.402 Z" /></g><g
           transform="translate(660.6049,71.5453)"
           id="g66"><path
             id="path68"
             style="fill:#1e2746;fill-opacity:1;fill-rule:nonzero;stroke:none"
             d="m 0,0 -13.315,-0.248 -0.041,75.56 -31.08,-0.028 -0.151,12.788 75.703,0.059 0.097,-12.8 -31.261,-0.016 z" /></g><g
           transform="translate(407.0862,159.6829)"
           id="g70"><path
             id="path72"
             style="fill:#1f2747;fill-opacity:1;fill-rule:nonzero;stroke:none"
             d="m 0,0 13.35,-0.005 -0.033,-88.506 -13.35,0.005 z" /></g><g
           transform="translate(592.2302,71.3095)"
           id="g74"><path
             id="path76"
             style="fill:#23929c;fill-opacity:1;fill-rule:nonzero;stroke:none"
             d="m 0,0 -28.59,-0.017 14.447,27.106 z" /></g><g
           transform="translate(482.6627,84.1985)"
           id="g78"><path
             id="path80"
             style="fill:#1e2745;fill-opacity:1;fill-rule:nonzero;stroke:none"
             d="M 0,0 -24.526,0.092 -24.53,62.727 1.877,62.428 C 17.993,62.245 29.704,48.92 30.136,32.242 30.608,14.026 17.628,-0.066 0,0 m 3.112,75.068 -40.747,0.361 0.085,-88.505 40.581,0.443 c 23.387,1.966 40.118,19.942 40.401,43.69 0.288,24.136 -16.613,42.168 -40.32,44.011" /></g><g
           transform="translate(744.4739,82.7714)"
           id="g82"><path
             id="path84"
             style="fill:#1d2644;fill-opacity:1;fill-rule:nonzero;stroke:none"
             d="m 0,0 c -18.079,0 -32.734,14.656 -32.734,32.734 0,18.079 14.655,32.734 32.734,32.734 18.078,0 32.734,-14.655 32.734,-32.734 C 32.734,14.656 18.078,0 0,0 m -0.068,78.514 c -25.29,0 -45.792,-20.501 -45.792,-45.791 0,-25.291 20.502,-45.792 45.792,-45.792 25.29,0 45.792,20.501 45.792,45.792 0,25.29 -20.502,45.791 -45.792,45.791" /></g></g></g><text
       id="text88"
       style="font-variant:normal;font-weight:900;font-stretch:normal;font-size:34.63140106px;font-family:Poppins;-inkscape-font-specification:Poppins-Regular;writing-mode:lr-tb;fill:#05a2a3;fill-opacity:1;fill-rule:nonzero;stroke:none"
       transform="matrix(1,0,0,-1,296.8159,21.0098)"><tspan
         id="tspan86"
         y="0"
         x="0 30.267843 45.713448 77.12413 107.39197 133.05383 149.2267 183.37326 210.35112 235.0433 263.02548 293.29333 320.54825 347.69925 381.84583 413.11798 429.29083 466.03476 490.72693 518.70911 546.37958 571.07178 596.73364">AİDAT OPERASYON MERKEZİ</tspan></text>
</g></svg>